<svg xmlns="http://www.w3.org/2000/svg" width="180" height="37" viewBox="0 0 180 37" class="_32yNY"><defs><radialGradient id="a" cx="49.802%" cy="50.384%" r="53.2%" fx="49.802%" fy="50.384%" gradientTransform="matrix(-.4378 .85047 -.47592 -.21922 .956 .19)"><stop offset="0%" stop-color="#969696"></stop><stop offset="100%" stop-color="#FFF"></stop></radialGradient></defs><g fill="none" fill-rule="evenodd"><path fill="#FFF" fill-rule="nonzero" d="M57.654 28l-1.711-4.698H47.59L45.88 28h-4.234l7.888-20.561h4.64L62.004 28h-4.35zm-5.887-16.124l-2.842 7.772h5.684l-2.842-7.772zM85.269 28h-4.205l-9.338-14.587V28h-4.002V7.439h4.988l8.555 13.601V7.439h4.002V28zm11.81-11.194h3.161c2.001 0 3.22-1.16 3.22-2.929 0-1.827-1.219-2.958-3.22-2.958h-3.16v5.887zm3.654 3.451H97.05V28h-4.002V7.439h7.685c4.06 0 6.757 2.697 6.757 6.409 0 3.741-2.697 6.409-6.757 6.409zm15.9-2.552c0 4.64 3.248 6.844 6.409 6.844 3.19 0 6.438-2.204 6.438-6.844 0-4.64-3.248-6.844-6.438-6.844-3.162 0-6.41 2.204-6.41 6.844zm-4.147.029c0-6.641 4.987-10.73 10.555-10.73 5.597 0 10.585 4.089 10.585 10.73 0 6.612-4.988 10.701-10.585 10.701-5.567 0-10.555-4.089-10.555-10.701zm30.63-.029c0 4.64 3.249 6.844 6.41 6.844 3.19 0 6.438-2.204 6.438-6.844 0-4.64-3.248-6.844-6.438-6.844-3.161 0-6.41 2.204-6.41 6.844zm-4.146.029c0-6.641 4.988-10.73 10.556-10.73 5.597 0 10.585 4.089 10.585 10.73 0 6.612-4.988 10.701-10.585 10.701-5.568 0-10.556-4.089-10.556-10.701zM179.838 28h-13.166V7.439h4.002v16.733h9.164V28z"></path><path fill="url(#a)" d="M11.615 0c.613 0 1.184.31 1.514.822l21.587 33.433c.185.287.284.62.284.962A1.79 1.79 0 0 1 33.202 37H22.71c-.623 0-1.2-.319-1.528-.843L.27 2.723a1.773 1.773 0 0 1-.27-.94A1.79 1.79 0 0 1 1.798 0h9.817z"></path><path fill="#FFF" d="M23.385 0h9.817A1.79 1.79 0 0 1 35 1.783c0 .333-.094.658-.27.94L13.818 36.157A1.801 1.801 0 0 1 12.29 37H1.798A1.79 1.79 0 0 1 0 35.217c0-.341.099-.675.284-.962L21.87.822C22.2.31 22.77 0 23.385 0z"></path></g></svg>